<?xml version="1.0" encoding="utf-8"?>
<!-- Generator: Adobe Illustrator 21.1.0, SVG Export Plug-In . SVG Version: 6.00 Build 0)  -->
<svg version="1.1" id="图层_1" xmlns="http://www.w3.org/2000/svg" xmlns:xlink="http://www.w3.org/1999/xlink" x="0px" y="0px"
	 viewBox="0 0 30 30" style="enable-background:new 0 0 30 30;" xml:space="preserve">
<style type="text/css">
	.st0{clip-path:url(#SVGID_2_);}
	.st1{fill:#333333;}
	.st2{clip-path:url(#SVGID_4_);}
</style>
<title>感叹号33</title>
<g>
	<defs>
		<path id="SVGID_1_" d="M15.3,3.7c-1.5,0-2.7,1.1-2.6,2.3l0,0l0.8,12.3c0,0.7,0.8,1.3,1.8,1.3c1,0,1.8-0.6,1.8-1.3L17.9,6
			C18,4.8,16.8,3.7,15.3,3.7C15.3,3.7,15.3,3.7,15.3,3.7z"/>
	</defs>
	<clipPath id="SVGID_2_">
		<use xlink:href="#SVGID_1_"  style="overflow:visible;"/>
	</clipPath>
	<g class="st0">
		<polygon class="st1" points="5.6,-2.4 25,-2.4 22,23 8.6,23 		"/>
	</g>
</g>
<g>
	<defs>
		<circle id="SVGID_3_" cx="15.2" cy="23.4" r="2.4"/>
	</defs>
	<clipPath id="SVGID_4_">
		<use xlink:href="#SVGID_3_"  style="overflow:visible;"/>
	</clipPath>
	<g class="st2">
		<rect x="7.8" y="16" class="st1" width="14.8" height="14.8"/>
	</g>
</g>
<path class="st1" d="M15,0C6.7,0,0,6.7,0,15c0,8.3,6.7,15,15,15s15-6.7,15-15C30,6.7,23.3,0,15,0z M15,27C8.4,27,3,21.6,3,15
	C3,8.4,8.4,3,15,3s12,5.4,12,12C27,21.6,21.6,27,15,27z"/>
</svg>
