<?xml version="1.0" encoding="utf-8"?>
<!-- Generator: Adobe Illustrator 21.1.0, SVG Export Plug-In . SVG Version: 6.00 Build 0)  -->
<svg version="1.1" id="图层_1" xmlns="http://www.w3.org/2000/svg" xmlns:xlink="http://www.w3.org/1999/xlink" x="0px" y="0px"
	 viewBox="0 0 30 30" style="enable-background:new 0 0 30 30;" xml:space="preserve">
<style type="text/css">
	.st0{clip-path:url(#SVGID_2_);}
	.st1{fill:#333333;}
	.st2{clip-path:url(#SVGID_4_);}
	.st3{fill:#FFFFFF;}
	.st4{clip-path:url(#SVGID_6_);}
</style>
<title>感叹号11</title>
<g>
	<defs>
		<circle id="SVGID_1_" cx="15" cy="15" r="15"/>
	</defs>
	<clipPath id="SVGID_2_">
		<use xlink:href="#SVGID_1_"  style="overflow:visible;"/>
	</clipPath>
	<g class="st0">
		<rect x="-5" y="-5" class="st1" width="40" height="40"/>
	</g>
</g>
<g>
	<defs>
		<path id="SVGID_3_" d="M15.3,4c-1.5,0-2.7,1.1-2.7,2.4l0,0l0.8,12.2c0,0.7,0.8,1.3,1.8,1.3c1,0,1.8-0.6,1.8-1.3L18,6.4
			C18,5.1,16.8,4,15.3,4C15.3,4,15.3,4,15.3,4z"/>
	</defs>
	<clipPath id="SVGID_4_">
		<use xlink:href="#SVGID_3_"  style="overflow:visible;"/>
	</clipPath>
	<g class="st2">
		<polygon class="st3" points="5.3,-2.3 25.3,-2.3 22,23.2 8.6,23.2 		"/>
	</g>
</g>
<g>
	<defs>
		<circle id="SVGID_5_" cx="15.2" cy="24.7" r="2.4"/>
	</defs>
	<clipPath id="SVGID_6_">
		<use xlink:href="#SVGID_5_"  style="overflow:visible;"/>
	</clipPath>
	<g class="st4">
		<rect x="7.8" y="17.3" class="st3" width="14.8" height="14.8"/>
	</g>
</g>
</svg>
