<?xml version="1.0" encoding="utf-8"?>
<!-- Generator: Adobe Illustrator 21.1.0, SVG Export Plug-In . SVG Version: 6.00 Build 0)  -->
<svg version="1.1" id="图层_1" xmlns="http://www.w3.org/2000/svg" xmlns:xlink="http://www.w3.org/1999/xlink" x="0px" y="0px"
	 viewBox="0 0 30 30" style="enable-background:new 0 0 30 30;" xml:space="preserve">
<style type="text/css">
	.st0{fill:#333333;}
	.st1{fill:#FFFFFF;}
	.st2{clip-path:url(#SVGID_2_);}
</style>
<title>感叹号22</title>
<path class="st0" d="M15,0C6.7,0,0,6.7,0,15s6.7,15,15,15s15-6.7,15-15S23.3,0,15,0z M15,26.4C8.7,26.4,3.6,21.3,3.6,15
	S8.7,3.6,15,3.6S26.3,8.7,26.3,15S21.2,26.4,15,26.4z"/>
<path class="st0" d="M16.6,15l0,0.4c0,0.2-0.1,0.4-0.3,0.6c-0.3,0.3-0.8,0.5-1.4,0.5c-0.9,0-1.6-0.5-1.6-1.1l0-0.4H6c0,5,4,9,9,9
	s9-4,9-9H16.6z"/>
<path class="st0" d="M16.9,6.9c0-0.7-0.9-1.3-1.9-1.3c-1.1,0-1.9,0.6-1.9,1.3l0.2,6l0.1,2.1h3.3L16.9,6.9z"/>
<path class="st1" d="M15,16.5c0.6,0,1.1-0.2,1.4-0.5c0.2-0.2,0.3-0.4,0.3-0.6l0-0.4h-3.3l0,0.4C13.3,16,14.1,16.5,15,16.5z"/>
<g>
	<defs>
		<circle id="SVGID_1_" cx="15" cy="19.2" r="1.8"/>
	</defs>
	<clipPath id="SVGID_2_">
		<use xlink:href="#SVGID_1_"  style="overflow:visible;"/>
	</clipPath>
	<g class="st2">
		<rect x="8.6" y="12.9" class="st1" width="12.7" height="12.7"/>
	</g>
</g>
</svg>
